<mxfile host="app.diagrams.net" modified="2020-12-19T11:35:05.696Z" agent="5.0 (Windows NT 10.0; Win64; x64) AppleWebKit/537.36 (KHTML, like Gecko) Chrome/87.0.4280.88 Safari/537.36" etag="ixPMVMp6DCccWzgepHq5" version="14.0.1" type="github">
  <diagram name="Page-1" id="74b105a0-9070-1c63-61bc-23e55f88626e">
    <mxGraphModel dx="2183" dy="1243" grid="1" gridSize="10" guides="1" tooltips="1" connect="1" arrows="1" fold="1" page="1" pageScale="1.5" pageWidth="827" pageHeight="583" background="none" math="0" shadow="0">
      <root>
        <mxCell id="0" style=";html=1;" />
        <mxCell id="1" style=";html=1;" parent="0" />
        <mxCell id="7aNfvuDgiZK2vMjcJ0YT-9" value="Unity" style="rounded=0;whiteSpace=wrap;html=1;fillColor=none;labelPosition=center;verticalLabelPosition=top;align=center;verticalAlign=bottom;fontSize=16;" parent="1" vertex="1">
          <mxGeometry x="450" y="110" width="700" height="630" as="geometry" />
        </mxCell>
        <mxCell id="10b056a9c633e61c-30" value="VR system" style="text;strokeColor=none;fillColor=none;html=1;fontSize=24;fontStyle=1;verticalAlign=middle;align=center;" parent="1" vertex="1">
          <mxGeometry x="80" y="40" width="1050" height="26.42" as="geometry" />
        </mxCell>
        <mxCell id="7aNfvuDgiZK2vMjcJ0YT-5" value="" style="edgeStyle=orthogonalEdgeStyle;rounded=0;orthogonalLoop=1;jettySize=auto;html=1;" parent="1" source="7aNfvuDgiZK2vMjcJ0YT-3" edge="1">
          <mxGeometry relative="1" as="geometry">
            <mxPoint x="220" y="194" as="targetPoint" />
          </mxGeometry>
        </mxCell>
        <mxCell id="7aNfvuDgiZK2vMjcJ0YT-3" value="Mocap" style="shape=image;html=1;verticalAlign=top;verticalLabelPosition=bottom;labelBackgroundColor=#ffffff;imageAspect=0;aspect=fixed;image=https://cdn4.iconfinder.com/data/icons/stick-figures-in-motion/100/stickfigure_20-128.png;fontSize=16;" parent="1" vertex="1">
          <mxGeometry x="40" y="130" width="128" height="128" as="geometry" />
        </mxCell>
        <mxCell id="7aNfvuDgiZK2vMjcJ0YT-8" value="TCP / IP" style="edgeStyle=orthogonalEdgeStyle;rounded=0;orthogonalLoop=1;jettySize=auto;html=1;fontSize=16;" parent="1" source="7aNfvuDgiZK2vMjcJ0YT-6" target="7aNfvuDgiZK2vMjcJ0YT-7" edge="1">
          <mxGeometry relative="1" as="geometry" />
        </mxCell>
        <mxCell id="7aNfvuDgiZK2vMjcJ0YT-6" value="TCP Server" style="shape=image;html=1;verticalAlign=top;verticalLabelPosition=bottom;labelBackgroundColor=#ffffff;imageAspect=0;aspect=fixed;image=https://cdn4.iconfinder.com/data/icons/bitcons/yellow/64x64/tcp.gif;fontSize=16;" parent="1" vertex="1">
          <mxGeometry x="230" y="162" width="64" height="64" as="geometry" />
        </mxCell>
        <mxCell id="7aNfvuDgiZK2vMjcJ0YT-11" value="" style="edgeStyle=orthogonalEdgeStyle;rounded=0;orthogonalLoop=1;jettySize=auto;html=1;" parent="1" source="7aNfvuDgiZK2vMjcJ0YT-7" target="7aNfvuDgiZK2vMjcJ0YT-10" edge="1">
          <mxGeometry relative="1" as="geometry" />
        </mxCell>
        <mxCell id="7aNfvuDgiZK2vMjcJ0YT-7" value="NetworkHandler.cs&lt;br style=&quot;font-size: 16px;&quot;&gt;&lt;br style=&quot;font-size: 16px;&quot;&gt;&lt;div style=&quot;font-size: 16px;&quot;&gt;ReadServerMessage()&lt;/div&gt;&lt;div style=&quot;font-size: 16px;&quot;&gt;1)&amp;nbsp;CMD_GET_CUR_FRAME_OK&lt;/div&gt;&lt;div style=&quot;font-size: 16px;&quot;&gt;2) transform data&lt;/div&gt;&lt;div style=&quot;font-size: 16px;&quot;&gt;3) call PlayerSetter.UpdatePlayerTransforms(Rot,Pos,FingerRot)&lt;/div&gt;" style="whiteSpace=wrap;html=1;verticalAlign=top;labelBackgroundColor=#ffffff;fontSize=16;align=left;" parent="1" vertex="1">
          <mxGeometry x="480" y="143" width="440" height="177" as="geometry" />
        </mxCell>
        <mxCell id="aPsun0Z6Roq6jAC1j_1i-1" value="" style="edgeStyle=orthogonalEdgeStyle;rounded=0;orthogonalLoop=1;jettySize=auto;html=1;fontSize=16;" edge="1" parent="1" source="7aNfvuDgiZK2vMjcJ0YT-10" target="7aNfvuDgiZK2vMjcJ0YT-19">
          <mxGeometry relative="1" as="geometry" />
        </mxCell>
        <mxCell id="7aNfvuDgiZK2vMjcJ0YT-10" value="PlayerSetter&lt;br style=&quot;font-size: 16px;&quot;&gt;&lt;br style=&quot;font-size: 16px;&quot;&gt;&lt;div style=&quot;font-size: 16px;&quot;&gt;UpdatePlayerTransforms()&lt;/div&gt;&lt;div style=&quot;font-size: 16px;&quot;&gt;1) logicDesriber.rotation Set&lt;/div&gt;&lt;div style=&quot;font-size: 16px;&quot;&gt;2) handHandlerScript rot set&lt;/div&gt;" style="whiteSpace=wrap;html=1;verticalAlign=top;labelBackgroundColor=#ffffff;fontSize=16;align=left;" parent="1" vertex="1">
          <mxGeometry x="929" y="373" width="210" height="128" as="geometry" />
        </mxCell>
        <mxCell id="7aNfvuDgiZK2vMjcJ0YT-12" value="" style="shape=image;html=1;verticalAlign=top;verticalLabelPosition=bottom;labelBackgroundColor=#ffffff;imageAspect=0;aspect=fixed;image=https://cdn4.iconfinder.com/data/icons/technology-83/1000/virtual_computing_data_virtual_reality_data_virtual_virtual_machine_virtual_machine-128.png;fillColor=none;" parent="1" vertex="1">
          <mxGeometry x="970" y="600" width="128" height="128" as="geometry" />
        </mxCell>
        <mxCell id="7aNfvuDgiZK2vMjcJ0YT-16" value="" style="edgeStyle=orthogonalEdgeStyle;rounded=0;orthogonalLoop=1;jettySize=auto;html=1;" parent="1" source="7aNfvuDgiZK2vMjcJ0YT-13" target="7aNfvuDgiZK2vMjcJ0YT-15" edge="1">
          <mxGeometry relative="1" as="geometry" />
        </mxCell>
        <mxCell id="7aNfvuDgiZK2vMjcJ0YT-13" value="Vive headset + controllers" style="shape=image;html=1;verticalAlign=top;verticalLabelPosition=bottom;labelBackgroundColor=#ffffff;imageAspect=0;aspect=fixed;image=https://cdn2.iconfinder.com/data/icons/software-engineering-and-video-gaming/512/622_human_man_reality_user_virtual_vr-128.png;fillColor=none;fontSize=16;" parent="1" vertex="1">
          <mxGeometry x="30" y="350.5" width="130" height="130" as="geometry" />
        </mxCell>
        <mxCell id="7aNfvuDgiZK2vMjcJ0YT-17" value="Head Rotation" style="edgeStyle=orthogonalEdgeStyle;rounded=0;orthogonalLoop=1;jettySize=auto;html=1;entryX=0;entryY=0.5;entryDx=0;entryDy=0;fontSize=16;" parent="1" source="7aNfvuDgiZK2vMjcJ0YT-15" target="7aNfvuDgiZK2vMjcJ0YT-19" edge="1">
          <mxGeometry relative="1" as="geometry">
            <mxPoint x="270" y="660.5" as="targetPoint" />
          </mxGeometry>
        </mxCell>
        <mxCell id="7aNfvuDgiZK2vMjcJ0YT-15" value="" style="shape=image;html=1;verticalAlign=top;verticalLabelPosition=bottom;labelBackgroundColor=#ffffff;imageAspect=0;aspect=fixed;image=https://cdn3.iconfinder.com/data/icons/popular-services-brands-vol-2/512/steam-128.png;fillColor=none;" parent="1" vertex="1">
          <mxGeometry x="280" y="366.25" width="98.5" height="98.5" as="geometry" />
        </mxCell>
        <mxCell id="7aNfvuDgiZK2vMjcJ0YT-18" value="Body GameObject Transforms" style="rounded=0;whiteSpace=wrap;html=1;fillColor=none;fontSize=16;" parent="1" vertex="1">
          <mxGeometry x="587" y="650" width="120" height="60" as="geometry" />
        </mxCell>
        <mxCell id="7aNfvuDgiZK2vMjcJ0YT-19" value="LogicalBoneDesriber (one for each body part)&lt;br style=&quot;font-size: 16px;&quot;&gt;&lt;br style=&quot;font-size: 16px;&quot;&gt;&lt;div style=&quot;font-size: 16px;&quot;&gt;Update()&lt;/div&gt;&lt;div style=&quot;font-size: 16px;&quot;&gt;Rotate all physical bones 1 or 2 only 0&lt;/div&gt;&lt;div style=&quot;font-size: 16px;&quot;&gt;3 rotate all 3&lt;/div&gt;&lt;div style=&quot;font-size: 16px;&quot;&gt;Set LocalPosition of all physicalBones&lt;/div&gt;&lt;div style=&quot;font-size: 16px;&quot;&gt;&lt;br style=&quot;font-size: 16px;&quot;&gt;&lt;/div&gt;" style="whiteSpace=wrap;html=1;verticalAlign=top;labelBackgroundColor=#ffffff;fontSize=16;align=left;" parent="1" vertex="1">
          <mxGeometry x="527" y="350.5" width="240" height="229.5" as="geometry" />
        </mxCell>
        <mxCell id="7aNfvuDgiZK2vMjcJ0YT-25" value="Set Transforms" style="endArrow=classic;html=1;exitX=0.5;exitY=1;exitDx=0;exitDy=0;fontSize=16;" parent="1" source="7aNfvuDgiZK2vMjcJ0YT-19" target="7aNfvuDgiZK2vMjcJ0YT-18" edge="1">
          <mxGeometry width="50" height="50" relative="1" as="geometry">
            <mxPoint x="640" y="390" as="sourcePoint" />
            <mxPoint x="690" y="340" as="targetPoint" />
          </mxGeometry>
        </mxCell>
        <mxCell id="7aNfvuDgiZK2vMjcJ0YT-26" value="Picture" style="endArrow=classic;html=1;exitX=0.5;exitY=1;exitDx=0;exitDy=0;entryX=0.5;entryY=1;entryDx=0;entryDy=0;fontSize=16;" parent="1" source="7aNfvuDgiZK2vMjcJ0YT-9" edge="1" target="7aNfvuDgiZK2vMjcJ0YT-13">
          <mxGeometry width="50" height="50" relative="1" as="geometry">
            <mxPoint x="640" y="650" as="sourcePoint" />
            <mxPoint x="10" y="500" as="targetPoint" />
            <Array as="points">
              <mxPoint x="800" y="780" />
              <mxPoint x="90" y="780" />
            </Array>
          </mxGeometry>
        </mxCell>
      </root>
    </mxGraphModel>
  </diagram>
</mxfile>
